<svg width="265" height="65" viewBox="0 0 265 65" fill="none" xmlns="http://www.w3.org/2000/svg">
<mask id="path-1-inside-1_1_588" fill="white">
<path fill-rule="evenodd" clip-rule="evenodd" d="M1.04561 53.0663C-1.96586 58.3993 1.88719 65 8.01169 65H229.52C232.406 65 235.068 63.4462 236.486 60.9337L263.716 12.713C264.394 11.5127 264.75 10.1577 264.75 8.77933V8C264.75 3.58172 261.168 0 256.75 0H35.6814C32.796 0 30.1342 1.55381 28.7154 4.06633L1.04561 53.0663Z"/>
</mask>
<path d="M28.7154 4.06633L26.9738 3.08292L28.7154 4.06633ZM263.716 12.713L265.458 13.6964L263.716 12.713ZM236.486 60.9337L234.745 59.9503L236.486 60.9337ZM1.04561 53.0663L2.78713 54.0498L1.04561 53.0663ZM8.01169 67H229.52V63H8.01169V67ZM238.228 61.9171L265.458 13.6964L261.975 11.7296L234.745 59.9503L238.228 61.9171ZM266.75 8.77933V8H262.75V8.77933H266.75ZM256.75 -2H35.6814V2H256.75V-2ZM26.9738 3.08292L-0.695909 52.0829L2.78713 54.0498L30.4569 5.04975L26.9738 3.08292ZM35.6814 -2C32.0746 -2 28.7473 -0.0577316 26.9738 3.08292L30.4569 5.04975C31.521 3.16536 33.5174 2 35.6814 2V-2ZM266.75 8C266.75 2.47715 262.273 -2 256.75 -2V2C260.064 2 262.75 4.68629 262.75 8H266.75ZM265.458 13.6964C266.305 12.1961 266.75 10.5023 266.75 8.77933H262.75C262.75 9.81313 262.483 10.8294 261.975 11.7296L265.458 13.6964ZM229.52 67C233.127 67 236.454 65.0577 238.228 61.9171L234.745 59.9503C233.681 61.8346 231.684 63 229.52 63V67ZM8.01169 63C3.41831 63 0.528529 58.0495 2.78713 54.0498L-0.695909 52.0829C-4.46025 58.7491 0.356063 67 8.01169 67V63Z" fill="#D9D9D9" mask="url(#path-1-inside-1_1_588)"/>
<path fill-rule="evenodd" clip-rule="evenodd" d="M1.04561 53.0663C-1.96586 58.3993 1.88719 65 8.01169 65H229.52C232.406 65 235.068 63.4462 236.486 60.9337L263.716 12.713C264.394 11.5127 264.75 10.1577 264.75 8.77933V8C264.75 3.58172 261.168 0 256.75 0H35.6814C32.796 0 30.1342 1.55381 28.7154 4.06633L1.04561 53.0663Z" fill="#E30613"/>
<path fill-rule="evenodd" clip-rule="evenodd" d="M1.04561 53.0663C-1.96586 58.3993 1.88719 65 8.01169 65H130.573C133.458 65 136.12 63.4462 137.539 60.9337L165.208 11.9337C168.22 6.60069 164.367 0 158.242 0H35.6814C32.796 0 30.1342 1.55381 28.7154 4.06633L1.04561 53.0663Z" fill="#009FE3"/>
<path d="M50.2381 44V18.4H55.2781C57.1874 18.4 58.5687 18.8 59.4221 19.6C60.2861 20.4 60.7501 21.728 60.8141 23.584C60.8461 24.3627 60.8621 25.0773 60.8621 25.728C60.8727 26.368 60.8727 27.0027 60.8621 27.632C60.8621 28.2507 60.8461 28.9067 60.8141 29.6C60.7821 30.8053 60.5741 31.7867 60.1901 32.544C59.8167 33.2907 59.2354 33.8453 58.4461 34.208L61.2461 44H57.5661L55.1821 34.784H53.6941V44H50.2381ZM53.6941 31.728H55.2621C55.9554 31.728 56.4674 31.568 56.7981 31.248C57.1394 30.9173 57.3261 30.4267 57.3581 29.776C57.3901 29.0933 57.4114 28.3947 57.4221 27.68C57.4327 26.9547 57.4327 26.2347 57.4221 25.52C57.4114 24.7947 57.3901 24.0907 57.3581 23.408C57.3261 22.7573 57.1447 22.272 56.8141 21.952C56.4834 21.632 55.9714 21.472 55.2781 21.472H53.6941V31.728ZM63.4256 44V18.4H72.5616V21.472H66.8816V29.504H72.2416V32.576H66.8816V40.928H72.5616V44H63.4256ZM79.8413 44.272C77.932 44.272 76.5666 43.8613 75.7453 43.04C74.924 42.208 74.476 40.8427 74.4013 38.944C74.3906 38.4427 74.38 37.9573 74.3693 37.488C74.3693 37.008 74.3746 36.528 74.3853 36.048C74.4066 35.568 74.4386 35.0773 74.4813 34.576H77.7453C77.7026 35.4293 77.676 36.2827 77.6653 37.136C77.6653 37.9893 77.692 38.7947 77.7453 39.552C77.788 40.1813 77.9746 40.6507 78.3053 40.96C78.636 41.2587 79.1426 41.408 79.8253 41.408C80.4973 41.408 80.9826 41.2587 81.2813 40.96C81.58 40.6507 81.7613 40.1813 81.8253 39.552C81.8573 39.072 81.8786 38.624 81.8893 38.208C81.9 37.792 81.9 37.3707 81.8893 36.944C81.8786 36.5173 81.8573 36.048 81.8253 35.536C81.7826 34.9067 81.6546 34.368 81.4413 33.92C81.228 33.472 80.8386 33.1733 80.2733 33.024L78.1293 32.48C77.1693 32.2347 76.4173 31.8773 75.8733 31.408C75.3293 30.928 74.94 30.32 74.7053 29.584C74.4706 28.848 74.3373 27.968 74.3053 26.944C74.2946 26.368 74.2893 25.7813 74.2893 25.184C74.3 24.5867 74.3106 23.9947 74.3213 23.408C74.364 22.1493 74.5666 21.136 74.9293 20.368C75.3026 19.5893 75.884 19.024 76.6733 18.672C77.4733 18.3093 78.524 18.128 79.8253 18.128C81.6706 18.128 83.004 18.5387 83.8253 19.36C84.6573 20.1813 85.1106 21.536 85.1853 23.424C85.2066 23.9467 85.212 24.592 85.2013 25.36C85.1906 26.1173 85.1693 26.8747 85.1373 27.632H81.8093C81.8413 26.832 81.8573 26.032 81.8573 25.232C81.868 24.4213 81.8573 23.616 81.8253 22.816C81.8146 22.1973 81.6386 21.7387 81.2973 21.44C80.956 21.1307 80.46 20.976 79.8093 20.976C79.1266 20.976 78.6306 21.1307 78.3213 21.44C78.012 21.7387 77.8306 22.1973 77.7773 22.816C77.724 23.4987 77.6973 24.1867 77.6973 24.88C77.708 25.5733 77.7346 26.2613 77.7773 26.944C77.82 27.6267 77.9533 28.176 78.1773 28.592C78.4013 29.008 78.8066 29.2907 79.3933 29.44L81.3293 29.904C82.3426 30.1387 83.132 30.5067 83.6973 31.008C84.2626 31.4987 84.6626 32.1227 84.8973 32.88C85.132 33.6267 85.2653 34.512 85.2973 35.536C85.3186 35.984 85.3293 36.3893 85.3293 36.752C85.3293 37.1147 85.324 37.472 85.3133 37.824C85.3026 38.1653 85.292 38.5387 85.2813 38.944C85.2066 40.8427 84.7533 42.208 83.9213 43.04C83.1 43.8613 81.74 44.272 79.8413 44.272ZM87.8006 44V18.4H96.9366V21.472H91.2566V29.504H96.6166V32.576H91.2566V40.928H96.9366V44H87.8006ZM99.1443 44V18.4H104.184C106.094 18.4 107.475 18.8 108.328 19.6C109.192 20.4 109.656 21.728 109.72 23.584C109.752 24.3627 109.768 25.0773 109.768 25.728C109.779 26.368 109.779 27.0027 109.768 27.632C109.768 28.2507 109.752 28.9067 109.72 29.6C109.688 30.8053 109.48 31.7867 109.096 32.544C108.723 33.2907 108.142 33.8453 107.352 34.208L110.152 44H106.472L104.088 34.784H102.6V44H99.1443ZM102.6 31.728H104.168C104.862 31.728 105.374 31.568 105.704 31.248C106.046 30.9173 106.232 30.4267 106.264 29.776C106.296 29.0933 106.318 28.3947 106.328 27.68C106.339 26.9547 106.339 26.2347 106.328 25.52C106.318 24.7947 106.296 24.0907 106.264 23.408C106.232 22.7573 106.051 22.272 105.72 21.952C105.39 21.632 104.878 21.472 104.184 21.472H102.6V31.728ZM114.62 44L111.404 18.4H114.988L116.636 31.952L117.1 40.928H117.98L118.444 31.952L120.092 18.4H123.692L120.476 44H114.62ZM125.738 44V18.4H134.874V21.472H129.194V29.504H134.554V32.576H129.194V40.928H134.874V44H125.738ZM171.301 44V18.4H176.581L178.245 26.528L180.213 40.928H180.997L180.357 28.416L180.101 18.4H183.461V44H177.941L176.181 35.216L174.613 21.456H173.781L174.373 34.304L174.645 44H171.301ZM191.786 44.272C189.866 44.272 188.479 43.8667 187.626 43.056C186.783 42.2347 186.346 40.8747 186.314 38.976C186.282 37.696 186.26 36.4053 186.25 35.104C186.239 33.8027 186.234 32.5013 186.234 31.2C186.234 29.888 186.239 28.5867 186.25 27.296C186.26 25.9947 186.282 24.6987 186.314 23.408C186.346 21.52 186.783 20.1707 187.626 19.36C188.479 18.5387 189.866 18.128 191.786 18.128C193.706 18.128 195.082 18.5387 195.914 19.36C196.756 20.1707 197.199 21.52 197.242 23.408C197.284 24.7093 197.311 26.0107 197.322 27.312C197.343 28.6133 197.354 29.9147 197.354 31.216C197.354 32.5173 197.343 33.8187 197.322 35.12C197.311 36.4107 197.284 37.696 197.242 38.976C197.199 40.8747 196.756 42.2347 195.914 43.056C195.082 43.8667 193.706 44.272 191.786 44.272ZM191.786 41.408C192.468 41.408 192.97 41.264 193.29 40.976C193.61 40.6773 193.775 40.2133 193.786 39.584C193.839 38.2613 193.871 36.8907 193.882 35.472C193.903 34.0427 193.914 32.6027 193.914 31.152C193.914 29.7013 193.903 28.272 193.882 26.864C193.86 25.456 193.828 24.1013 193.786 22.8C193.775 22.1707 193.604 21.712 193.274 21.424C192.954 21.1253 192.458 20.976 191.786 20.976C191.114 20.976 190.612 21.1253 190.282 21.424C189.962 21.712 189.791 22.1707 189.77 22.8C189.727 24.1013 189.69 25.456 189.658 26.864C189.636 28.272 189.626 29.7013 189.626 31.152C189.636 32.6027 189.652 34.0427 189.674 35.472C189.695 36.8907 189.727 38.2613 189.77 39.584C189.791 40.2133 189.962 40.6773 190.282 40.976C190.612 41.264 191.114 41.408 191.786 41.408ZM201.318 44L199.222 18.4H202.71L203.414 29.072L203.99 40.928H204.774L205.094 29.072L206.646 18.56H211.542L213.11 29.072L213.382 40.928H214.15L214.758 29.072L215.462 18.4H218.934L216.838 44H210.998L210.038 36.224L209.494 21.52H208.678L208.118 36.224L207.158 44H201.318ZM222.103 37.952L221.607 24.656V18.4H225.111V24.656L224.631 37.952H222.103ZM221.095 44V40.336H225.607V44H221.095Z" fill="#D9D9D9"/>
</svg>
